<svg width="12.000000" height="15.000000" viewBox="0 0 12 15" fill="none" xmlns="http://www.w3.org/2000/svg" xmlns:xlink="http://www.w3.org/1999/xlink">
	<desc>
			Created with Pixso.
	</desc>
	<defs/>
	<path id="Vector" d="M6 0C3.96924 0 2.32275 1.63586 2.32275 3.65381C2.32275 5.67175 3.96924 7.30774 6 7.30774C8.03076 7.30774 9.67725 5.67175 9.67725 3.65381C9.67725 1.63586 8.03076 0 6 0ZM3.48389 3.65381C3.48389 2.27319 4.61035 1.15381 6 1.15381C7.38965 1.15381 8.51611 2.27319 8.51611 3.65381C8.51611 5.03455 7.38965 6.15381 6 6.15381C4.61035 6.15381 3.48389 5.03455 3.48389 3.65381ZM4.09961 8.84619C1.83545 8.84619 0 10.6698 0 12.9196C0 13.3325 0.150391 13.8724 0.673828 14.1553C1.3667 14.5299 2.85303 15 6 15C9.14697 15 10.6333 14.5299 11.3262 14.1553C11.8496 13.8724 12 13.3325 12 12.9196C12 10.6698 10.1646 8.84619 7.90039 8.84619L4.09961 8.84619ZM1.16113 12.9196C1.16113 11.3071 2.47705 10 4.09961 10L7.90039 10C9.52295 10 10.8389 11.3071 10.8389 12.9196C10.8389 13.0042 10.8232 13.064 10.8066 13.0988C10.793 13.1281 10.7812 13.1365 10.7715 13.1418C10.3203 13.3857 9.05469 13.8462 6 13.8462C2.94531 13.8462 1.67969 13.3857 1.22852 13.1418C1.21875 13.1365 1.20703 13.1281 1.19336 13.0988C1.17676 13.064 1.16113 13.0042 1.16113 12.9196Z" fill="#46A358" fill-opacity="1.000000" fill-rule="evenodd"/>
</svg>
