<svg width="20.000000" height="20.000000" viewBox="0 0 20 20" fill="none" xmlns="http://www.w3.org/2000/svg" xmlns:xlink="http://www.w3.org/1999/xlink">
	<desc>
			Created with Pixso.
	</desc>
	<defs/>
	<rect id="Iconly/Light-Outline/Location" width="20.000000" height="20.000000" fill="#FFFFFF" fill-opacity="1.000000"/>
	<path id="Fill 1" d="M7.50049 8.54224C7.50049 10.0354 8.71533 11.2498 10.209 11.2498C11.7021 11.2498 12.917 10.0354 12.917 8.54224C12.917 7.0481 11.7021 5.83301 10.209 5.83301C8.71533 5.83301 7.50049 7.0481 7.50049 8.54224ZM8.75049 8.54224C8.75049 7.73706 9.40479 7.08301 10.209 7.08301C11.0132 7.08301 11.667 7.73706 11.667 8.54224C11.667 9.34644 11.0132 9.99976 10.209 9.99976C9.40479 9.99976 8.75049 9.34644 8.75049 8.54224Z" clip-rule="evenodd" fill="#727272" fill-opacity="1.000000" fill-rule="evenodd"/>
	<mask id="mask46_263" mask-type="alpha" maskUnits="userSpaceOnUse" x="3.333496" y="1.666748" width="13.749512" height="16.250000">
		<path id="Clip 4" d="M3.3335 1.66675L17.083 1.66675L17.083 17.9167L3.3335 17.9167L3.3335 1.66675Z" fill="#3A3333" fill-opacity="1.000000" fill-rule="evenodd"/>
	</mask>
	<g mask="url(#mask46_263)">
		<path id="Fill 3" d="M3.33301 8.59424C3.33301 13.29 8.71289 17.9167 10.208 17.9167C11.7031 17.9167 17.083 13.29 17.083 8.59424C17.083 4.77417 13.999 1.66675 10.208 1.66675C6.41699 1.66675 3.33301 4.77417 3.33301 8.59424ZM4.58301 8.59424C4.58301 5.46436 7.10645 2.91675 10.208 2.91675C13.3096 2.91675 15.833 5.46436 15.833 8.59424C15.833 12.5759 11.1465 16.4558 10.208 16.6633C9.26953 16.4568 4.58301 12.5767 4.58301 8.59424Z" clip-rule="evenodd" fill="#727272" fill-opacity="1.000000" fill-rule="evenodd"/>
	</g>
</svg>
