<svg width="18.000000" height="17.996826" viewBox="0 0 18 17.9968" fill="none" xmlns="http://www.w3.org/2000/svg" xmlns:xlink="http://www.w3.org/1999/xlink">
	<desc>
			Created with Pixso.
	</desc>
	<defs/>
	<path id="Vector" d="M12.8647 15.1848L7.4165 15.1848C5.09082 15.1848 3.19873 13.2927 3.19873 10.9668L3.19873 6.64355C3.19873 4.48145 2.12109 2.48022 0.315918 1.29004C-0.0078125 1.07617 -0.0976562 0.640381 0.116211 0.316162C0.330078 -0.00805664 0.765625 -0.0976562 1.08984 0.116211C2.12061 0.795654 2.95654 1.69165 3.5542 2.72339C3.68311 2.86792 4.7251 3.97217 6.43262 3.97217L14.5278 3.97217C16.7363 3.93066 18.4653 6.14722 17.8877 8.27905L16.9556 11.9934C16.4844 13.8723 14.8018 15.1848 12.8647 15.1848ZM4.42725 4.98096C4.54443 5.52075 4.60449 6.07764 4.60449 6.64355L4.60449 10.9668C4.60449 12.5173 5.86621 13.7788 7.4165 13.7788L12.8647 13.7788C14.1562 13.7788 15.2778 12.9038 15.5918 11.6511L16.5239 7.93677C16.8672 6.67017 15.8398 5.35352 14.5278 5.37793L6.43262 5.37793C5.66016 5.37793 4.98779 5.21143 4.42725 4.98096ZM7.06543 17.1182C7.06543 16.6328 6.67188 16.2393 6.18652 16.2393C5.02051 16.2859 5.02148 17.9509 6.18652 17.9968C6.67188 17.9968 7.06543 17.6035 7.06543 17.1182ZM14.0601 17.1182C14.0601 16.6328 13.6665 16.2393 13.1812 16.2393C12.0151 16.2859 12.0161 17.9509 13.1812 17.9968C13.6665 17.9968 14.0601 17.6035 14.0601 17.1182ZM15.231 7.48706C15.231 7.09888 14.916 6.78394 14.5278 6.78394L6.71387 6.78394C5.78076 6.82104 5.78174 8.15332 6.71387 8.18994L14.5278 8.18994C14.916 8.18994 15.231 7.87524 15.231 7.48706Z" fill="#727272" fill-opacity="1.000000" fill-rule="nonzero"/>
</svg>
