<svg width="20.000000" height="20.000000" viewBox="0 0 20 20" fill="none" xmlns="http://www.w3.org/2000/svg" xmlns:xlink="http://www.w3.org/1999/xlink">
	<desc>
			Created with Pixso.
	</desc>
	<defs/>
	<path id="Stroke 1" d="M10 19.25C16.937 19.25 19.25 16.937 19.25 10C19.25 3.06299 16.937 0.75 10 0.75C3.06299 0.75 0.75 3.06299 0.75 10C0.75 16.937 3.06299 19.25 10 19.25Z" stroke="#46A358" stroke-opacity="1.000000" stroke-width="1.500000" stroke-linejoin="round"/>
	<path id="Stroke 3" d="M6.83789 8.54517C5.86572 8.54517 5.07666 7.75708 5.07666 6.78418C5.07666 5.81128 5.86572 5.02319 6.83789 5.02319C7.81055 5.02319 8.59863 5.81128 8.59863 6.78418C8.59863 7.75708 7.81055 8.54517 6.83789 8.54517Z" stroke="#46A358" stroke-opacity="1.000000" stroke-width="1.500000" stroke-linejoin="round"/>
	<path id="Stroke 5" d="M19.1201 12.6667C18.2393 11.7607 16.9932 9.92969 14.7041 9.92969C12.4155 9.92969 12.3652 13.9678 10.0293 13.9678C7.69238 13.9678 6.75146 12.5967 5.22852 13.3127C3.70654 14.0276 2.46631 16.8738 2.46631 16.8738" stroke="#46A358" stroke-opacity="1.000000" stroke-width="1.500000" stroke-linejoin="round" stroke-linecap="round"/>
</svg>
