<svg width="15.854492" height="15.902344" viewBox="0 0 15.8545 15.9023" fill="none" xmlns="http://www.w3.org/2000/svg" xmlns:xlink="http://www.w3.org/1999/xlink">
	<desc>
			Created with Pixso.
	</desc>
	<defs/>
	<path id="Stroke 1" d="M4.10107 10.1279L6.3457 7.21118L8.90625 9.22119L11.103 6.38623" stroke="#727272" stroke-opacity="1.000000" stroke-width="1.500000" stroke-linejoin="round" stroke-linecap="round"/>
	<path id="Stroke 2" d="M15.1045 2.19141C15.1045 2.9873 14.4595 3.63306 13.6631 3.63306C12.8667 3.63306 12.2217 2.9873 12.2217 2.19141C12.2217 1.39502 12.8667 0.75 13.6631 0.75C14.4595 0.75 15.1045 1.39502 15.1045 2.19141Z" stroke="#727272" stroke-opacity="1.000000" stroke-width="1.500000" stroke-linejoin="round"/>
	<path id="Stroke 4" d="M14.4795 5.93945C14.5791 6.6106 14.625 7.3667 14.625 8.21484C14.625 13.4185 12.8911 15.1523 7.6875 15.1523C2.48486 15.1523 0.75 13.4185 0.75 8.21484C0.75 3.01221 2.48486 1.27734 7.6875 1.27734C8.52002 1.27734 9.26318 1.32153 9.9248 1.41748" stroke="#727272" stroke-opacity="1.000000" stroke-width="1.500000" stroke-linejoin="round" stroke-linecap="round"/>
</svg>
