<svg width="16.000000" height="14.234863" viewBox="0 0 16 14.2349" fill="none" xmlns="http://www.w3.org/2000/svg" xmlns:xlink="http://www.w3.org/1999/xlink">
	<desc>
			Created with Pixso.
	</desc>
	<defs/>
	<path id="Vector" d="M8 14.2349C7.77246 14.2349 7.55273 14.1523 7.38135 14.0024C6.73535 13.4373 6.11182 12.9062 5.56201 12.4375L5.55957 12.4351C3.94727 11.0615 2.55566 9.87524 1.58691 8.70654C0.504395 7.40039 0 6.16162 0 4.80859C0 3.49365 0.450684 2.28076 1.26953 1.39307C2.09766 0.494629 3.23389 0 4.46973 0C5.39355 0 6.23926 0.291992 6.9834 0.867676C7.35938 1.15845 7.7002 1.51416 8 1.9292C8.30029 1.51416 8.64062 1.15845 9.0166 0.867676C9.76074 0.291992 10.6069 0 11.5303 0C12.7661 0 13.9023 0.494629 14.731 1.39307C15.5493 2.28076 16 3.49365 16 4.80859C16 6.16162 15.4961 7.40039 14.4131 8.70654C13.4448 9.87524 12.0527 11.0615 10.4414 12.4351C9.89062 12.9043 9.26611 13.436 8.61816 14.0027C8.44727 14.1523 8.22754 14.2349 8 14.2349ZM4.46973 0.937256C3.49902 0.937256 2.60693 1.32471 1.95801 2.02832C1.2998 2.74268 0.937012 3.72974 0.937012 4.80859C0.937012 5.94653 1.36035 6.96436 2.30859 8.10864C3.2251 9.21484 4.58838 10.3765 6.16699 11.7219L6.16992 11.7244C6.72168 12.1948 7.34766 12.728 7.99854 13.2974C8.65381 12.7268 9.28027 12.1929 9.83301 11.7217C11.4116 10.3765 12.7749 9.21484 13.6914 8.10864C14.6396 6.96436 15.063 5.94653 15.063 4.80859C15.063 3.72974 14.7002 2.74268 14.042 2.02832C13.3931 1.32471 12.501 0.937256 11.5303 0.937256C10.8193 0.937256 10.166 1.16333 9.58984 1.60913C9.07617 2.00659 8.71777 2.50903 8.5083 2.8606C8.40039 3.0415 8.21045 3.14941 8 3.14941C7.78955 3.14941 7.59961 3.0415 7.4917 2.8606C7.28223 2.50903 6.92432 2.00659 6.41016 1.60913C5.83398 1.16333 5.18066 0.937256 4.46973 0.937256Z" fill="#727272" fill-opacity="1.000000" fill-rule="nonzero"/>
</svg>
