<svg width="20.000000" height="20.000000" viewBox="0 0 20 20" fill="none" xmlns="http://www.w3.org/2000/svg" xmlns:xlink="http://www.w3.org/1999/xlink">
	<desc>
			Created with Pixso.
	</desc>
	<defs/>
	<path id="Vector" d="M16.4336 17.6055C14.6992 19.0703 12.4492 20 10 20C6.35547 20 3.15625 17.9922 1.42188 15.0625L2.07129 12.0695L4.94922 11.5352C5.61719 13.6914 7.63281 15.2734 10 15.2734C11.1484 15.2734 12.2148 14.9102 13.0938 14.2656L15.8594 14.6875L16.4336 17.6055Z" fill="#59C36A" fill-opacity="1.000000" fill-rule="nonzero"/>
	<path id="Vector" d="M16.4336 17.6055L15.8594 14.6875L13.0938 14.2656C12.2148 14.9102 11.1484 15.2734 10 15.2734L10 20C12.4492 20 14.6992 19.0703 16.4336 17.6055Z" fill="#00A66C" fill-opacity="1.000000" fill-rule="nonzero"/>
	<path id="Vector" d="M4.72656 10C4.72656 10.5391 4.80859 11.0547 4.94922 11.5352L1.42188 15.0625C0.542969 13.5859 0 11.8516 0 10C0 8.14844 0.542969 6.41406 1.42188 4.9375L4.25293 5.42468L4.94922 8.46484C4.80859 8.94531 4.72656 9.46094 4.72656 10Z" fill="#FFDA2D" fill-opacity="1.000000" fill-rule="nonzero"/>
	<path id="Vector" d="M20 10C20 13.0469 18.5898 15.7773 16.4336 17.6055L13.0938 14.2656C13.7734 13.7734 14.3477 13.1172 14.7227 12.3438L10 12.3438C9.67188 12.3438 9.41406 12.0859 9.41406 11.7578L9.41406 8.24219C9.41406 7.91406 9.67188 7.65625 10 7.65625L19.25 7.65625C19.5312 7.65625 19.7773 7.85547 19.8242 8.13672C19.9414 8.74609 20 9.37891 20 10Z" fill="#4086F4" fill-opacity="1.000000" fill-rule="nonzero"/>
	<path id="Vector" d="M14.7227 12.3438C14.3477 13.1172 13.7734 13.7734 13.0938 14.2656L16.4336 17.6055C18.5898 15.7773 20 13.0469 20 10C20 9.37891 19.9414 8.74609 19.8242 8.13672C19.7773 7.85547 19.5312 7.65625 19.25 7.65625L10 7.65625L10 12.3438L14.7227 12.3438Z" fill="#4175DF" fill-opacity="1.000000" fill-rule="nonzero"/>
	<path id="Vector" d="M16.5977 2.79297C16.6094 2.95703 16.5391 3.10938 16.4336 3.22656L13.9258 5.72266C13.7266 5.93359 13.3984 5.95703 13.1641 5.78125C12.2383 5.08984 11.1484 4.72656 10 4.72656C7.63281 4.72656 5.61719 6.30859 4.94922 8.46484L1.42188 4.9375C3.15625 2.00781 6.35547 0 10 0C12.332 0 14.6055 0.859375 16.3867 2.35938C16.5156 2.46484 16.5859 2.62891 16.5977 2.79297Z" fill="#FF641A" fill-opacity="1.000000" fill-rule="nonzero"/>
	<path id="Vector" d="M13.1641 5.78125C13.3984 5.95703 13.7266 5.93359 13.9258 5.72266L16.4336 3.22656C16.5391 3.10938 16.6094 2.95703 16.5977 2.79297C16.5859 2.62878 16.5156 2.46484 16.3867 2.35938C14.6055 0.859375 12.332 0 10 0L10 4.72656C11.1484 4.72656 12.2383 5.08984 13.1641 5.78125Z" fill="#F03800" fill-opacity="1.000000" fill-rule="nonzero"/>
</svg>
