<svg width="65.164062" height="80.000000" viewBox="0 0 65.1641 80" fill="none" xmlns="http://www.w3.org/2000/svg" xmlns:xlink="http://www.w3.org/1999/xlink">
	<desc>
			Created with Pixso.
	</desc>
	<defs/>
	<path id="Vector" d="M29.2798 25.9317C29.8843 26.1624 30.5615 25.8588 30.792 25.2536L31.1851 24.2217L33.9575 24.2217L34.3457 25.2503C34.5229 25.7195 34.9688 26.0088 35.4424 26.0088C35.5796 26.0088 35.7197 25.9844 35.856 25.933C36.4614 25.7045 36.7671 25.0284 36.5386 24.4228L33.8311 17.2483C33.8271 17.2378 33.8228 17.227 33.8184 17.2167C33.6118 16.7133 33.1265 16.3881 32.582 16.3881C32.582 16.3881 32.5815 16.3881 32.5811 16.3881C32.0366 16.3884 31.5513 16.7144 31.3452 17.2183C31.3413 17.2274 31.3374 17.2361 31.3345 17.2453L28.6021 24.4195C28.3716 25.0242 28.6753 25.7013 29.2798 25.9317ZM33.0732 21.8781L32.0776 21.8781L32.5776 20.5656L33.0732 21.8781Z" fill="#46A358" fill-opacity="1.000000" fill-rule="nonzero"/>
	<path id="Vector" d="M38.9121 26.0085C39.5596 26.0085 40.084 25.4839 40.084 24.8366L40.084 21.3327L42.8589 25.3508C43.1924 25.8333 43.7539 26.0377 44.2886 25.8708C44.832 25.7013 45.1831 25.1989 45.1831 24.58L45.1152 17.5486C45.1089 16.9053 44.5854 16.388 43.9434 16.388C43.9395 16.388 43.9355 16.388 43.9321 16.388C43.2847 16.3943 42.7651 16.9241 42.7715 17.5711L42.8062 21.1497L39.8765 16.9075C39.585 16.4855 39.0537 16.3024 38.5635 16.4547C38.0737 16.6074 37.7402 17.0607 37.7402 17.5735L37.7402 24.8365C37.7402 25.4839 38.2646 26.0085 38.9121 26.0085Z" fill="#46A358" fill-opacity="1.000000" fill-rule="nonzero"/>
	<path id="Vector" d="M47.8301 26.0084C48.4775 26.0084 49.002 25.4839 49.002 24.8365L49.002 23.5699L51.1895 25.68C51.4165 25.8994 51.71 26.0086 52.0029 26.0086C52.3096 26.0086 52.6162 25.8886 52.8462 25.6503C53.2954 25.1847 53.2822 24.4427 52.8164 23.9934L49.7725 21.0564L52.5376 18.5145C53.0142 18.0766 53.0454 17.3351 52.6074 16.8587C52.1694 16.3822 51.4277 16.3511 50.9517 16.7891L49.002 18.5809L49.002 17.56C49.002 16.9127 48.4775 16.3881 47.8301 16.3881C47.1826 16.3881 46.6582 16.9127 46.6582 17.56L46.6582 24.8365C46.6582 25.4839 47.1831 26.0084 47.8301 26.0084Z" fill="#46A358" fill-opacity="1.000000" fill-rule="nonzero"/>
	<path id="Vector" d="M20.9897 26.0084C21.6372 26.0084 22.1616 25.4839 22.1616 24.8365L22.1616 22.2453L24.8535 22.2453L24.8535 24.8365C24.8535 25.4839 25.3779 26.0084 26.0254 26.0084C26.6729 26.0084 27.1973 25.4839 27.1973 24.8365L27.1973 17.56C27.1973 16.9127 26.6729 16.3881 26.0254 16.3881C25.3779 16.3881 24.8535 16.9127 24.8535 17.56L24.8535 19.9016L22.1616 19.9016L22.1616 17.56C22.1616 16.9127 21.6372 16.3881 20.9897 16.3881C20.3423 16.3881 19.8179 16.9127 19.8179 17.56L19.8179 24.8365C19.8179 25.4839 20.3423 26.0084 20.9897 26.0084Z" fill="#46A358" fill-opacity="1.000000" fill-rule="nonzero"/>
	<path id="Vector" d="M18.2329 31.64L20.3657 34.9061L20.3574 38.273C20.356 38.9203 20.8794 39.4463 21.5264 39.4478L21.5293 39.4478C22.1753 39.4478 22.6997 38.925 22.7012 38.2789L22.7095 34.908L24.8257 31.657C25.1787 31.1145 25.0254 30.3886 24.4829 30.0356C23.9404 29.6822 23.2144 29.8359 22.8613 30.3783L21.5366 32.4131L20.1953 30.3586C19.8413 29.8166 19.1152 29.6645 18.5732 30.0181C18.0312 30.372 17.8789 31.0981 18.2329 31.64Z" fill="#46A358" fill-opacity="1.000000" fill-rule="nonzero"/>
	<path id="Vector" d="M36.3096 36.0064C36.3096 37.1997 36.876 38.1662 37.9922 38.8798C38.5811 39.2556 39.2437 39.4467 39.9629 39.4478L39.9683 39.4478C40.5859 39.4478 41.1665 39.3133 41.6938 39.0475C42.9937 38.3928 43.71 37.3109 43.71 36.0011L43.71 30.9992C43.71 30.3519 43.1851 29.8273 42.5381 29.8273C41.8906 29.8273 41.3662 30.3519 41.3662 30.9992L41.3662 36.0011C41.3662 36.3061 41.2778 36.6326 40.6396 36.9542C40.4395 37.0551 40.2197 37.1041 39.9688 37.1041C39.9678 37.1041 39.9668 37.1041 39.9663 37.1041C39.6963 37.1037 39.4634 37.0384 39.2539 36.9048C38.6992 36.5503 38.6533 36.2776 38.6533 36.0066L38.6533 30.9994C38.6533 30.352 38.1289 29.8275 37.4814 29.8275C36.834 29.8275 36.3096 30.352 36.3096 30.9994L36.3096 36.0064L36.3096 36.0064Z" fill="#46A358" fill-opacity="1.000000" fill-rule="nonzero"/>
	<path id="Vector" d="M13.3442 18.7319L14.1738 18.7319L14.1738 24.8365C14.1738 25.4839 14.6982 26.0084 15.3457 26.0084C15.9927 26.0084 16.5176 25.4839 16.5176 24.8365L16.5176 18.7319L17.3628 18.7319C18.0103 18.7319 18.5347 18.2073 18.5347 17.56C18.5347 16.9127 18.0103 16.3881 17.3628 16.3881L13.3442 16.3881C12.6968 16.3881 12.1724 16.9127 12.1724 17.56C12.1724 18.2073 12.6968 18.7319 13.3442 18.7319Z" fill="#46A358" fill-opacity="1.000000" fill-rule="nonzero"/>
	<path id="Vector" d="M30.2124 29.8275C27.5601 29.8275 25.4023 31.9855 25.4023 34.6377C25.4023 37.2899 27.5605 39.4478 30.2124 39.4478C32.8652 39.4478 35.0229 37.2899 35.0229 34.6377C35.0229 31.9855 32.8647 29.8275 30.2124 29.8275ZM30.2124 37.1041C28.8525 37.1041 27.7461 35.9977 27.7461 34.6377C27.7461 33.2777 28.8525 32.1713 30.2124 32.1713C31.5723 32.1713 32.6792 33.2777 32.6792 34.6377C32.6792 35.9977 31.5723 37.1041 30.2124 37.1041Z" fill="#46A358" fill-opacity="1.000000" fill-rule="nonzero"/>
	<path id="Vector" d="M63.3789 28.0734L59.9292 24.4797L59.9292 9.46423C59.9292 7.37485 58.229 5.67484 56.1396 5.67484L41.8755 5.67484C41.8716 5.67108 41.8687 5.66687 41.8652 5.66312L39.0923 2.77469C37.3745 0.985474 35.0625 0 32.582 0C30.1016 0 27.7896 0.985474 26.0723 2.77469L23.2876 5.67499L9.02441 5.67499C6.93506 5.67499 5.23486 7.375 5.23486 9.46439L5.23486 24.48L1.78516 28.0734C0.634277 29.2725 0 30.8483 0 32.5103L0 76.2106C0 78.3002 1.7002 80 3.78955 80L61.3745 80C63.4639 80 65.1641 78.3002 65.1641 76.2106L65.1641 32.5103C65.1641 30.8483 64.5298 29.2725 63.3789 28.0734ZM61.688 29.6967C62.418 30.457 62.8203 31.4564 62.8203 32.5105L62.8203 35.168L59.9287 38.1797L59.9287 27.8641L61.688 29.6967ZM27.7627 4.39783C29.0342 3.07327 30.7456 2.34375 32.582 2.34375C34.4185 2.34375 36.1299 3.07327 37.4014 4.39783L38.6274 5.67484L26.5366 5.67484L27.7627 4.39783ZM9.02441 8.01859L56.1396 8.01859C56.9365 8.01859 57.585 8.66702 57.585 9.46423L57.585 40.6209L45.146 53.5784L39.0918 47.2722C37.374 45.483 35.062 44.4975 32.582 44.4975C30.1016 44.4975 27.7896 45.483 26.0718 47.2722L20.0176 53.5784L7.57861 40.6209L7.57861 9.46423C7.57861 8.66718 8.22754 8.01859 9.02441 8.01859ZM18.3936 55.2706L2.34375 71.9891L2.34375 38.5522L18.3936 55.2706ZM2.34375 32.5103C2.34375 31.4562 2.74609 30.4569 3.47607 29.6966L5.23535 27.8641L5.23535 38.1794L2.34375 35.1677L2.34375 32.5103ZM61.3745 77.6562L3.78955 77.6562C2.99219 77.6562 2.34375 77.0078 2.34375 76.2106L2.34375 75.3733L27.7627 48.8953C29.0347 47.5706 30.7461 46.8412 32.582 46.8412C34.4185 46.8412 36.1299 47.5708 37.4014 48.8953L46.814 58.6997C47.2622 59.1667 48.0039 59.1814 48.4707 58.7334C48.9375 58.2853 48.9526 57.5435 48.5044 57.0766L46.7705 55.2706L62.8203 38.5522L62.8203 71.9891L52.2734 61.0028C51.8252 60.5359 51.0835 60.5209 50.6167 60.9691C50.1499 61.4172 50.1348 62.1591 50.583 62.6259L62.8203 75.3733L62.8203 76.2105C62.8203 77.0078 62.1719 77.6562 61.3745 77.6562Z" fill="#46A358" fill-opacity="1.000000" fill-rule="nonzero"/>
</svg>
